<?xml version="1.0" encoding="UTF-8"?>
<svg version="1.1" xmlns="http://www.w3.org/2000/svg" width="512" height="512">
<path d="M0 0 C2.54922017 2.77415136 3.40023636 4.61620541 4.125 8.3125 C3.78926659 14.5083075 1.59950323 18.56491323 -1.5 23.75 C-9.3211202 37.36951279 -15.04042888 51.07503053 -18.875 66.3125 C-19.19597656 67.5190625 -19.51695312 68.725625 -19.84765625 69.96875 C-24.26037517 89.83624729 -24.17026685 114.664273 -18.875 134.3125 C-18.67100586 135.09157715 -18.46701172 135.8706543 -18.25683594 136.67333984 C-11.95361754 160.4044525 -1.63411248 180.50474969 14.125 199.3125 C14.888125 200.2303125 15.65125 201.148125 16.4375 202.09375 C21.77185294 208.2663584 27.67943546 213.33343312 34.125 218.3125 C35.05054688 219.05371094 35.97609375 219.79492188 36.9296875 220.55859375 C65.99991335 243.28694106 105.8419258 254.84793865 142.62841797 250.64892578 C164.81240869 247.65953216 184.28306613 241.39450882 203.85546875 230.64453125 C205.27793216 229.86588231 206.70109904 229.088517 208.125 228.3125 C208.84421631 227.91981934 209.56343262 227.52713867 210.30444336 227.12255859 C211.34870483 226.57269287 211.34870483 226.57269287 212.4140625 226.01171875 C213.02846191 225.68389404 213.64286133 225.35606934 214.27587891 225.01831055 C217.86710553 223.64753735 220.43763052 224.34532112 224.125 225.3125 C228.16538324 227.77186371 229.70093981 229.86633922 231.125 234.3125 C233.64042842 275.97831431 206.33339334 323.99409777 179.8515625 354.24609375 C178.94388588 355.269275 178.03501844 356.29140101 177.125 357.3125 C176.65674805 357.84246582 176.18849609 358.37243164 175.70605469 358.91845703 C170.19147209 365.14162778 164.58717792 371.05587124 158.125 376.3125 C157.36823975 376.94575195 157.36823975 376.94575195 156.59619141 377.59179688 C127.94257779 401.5671017 94.03372171 418.60783226 57.125 425.3125 C56.44370026 425.43638092 55.76240051 425.56026184 55.06045532 425.68789673 C42.13714326 427.97959798 29.55059514 428.84235105 16.4375 428.75 C15.52700897 428.74729095 14.61651794 428.74458191 13.67843628 428.74179077 C-1.17334108 428.67507003 -15.35683135 427.65629471 -29.875 424.3125 C-30.70322266 424.13058105 -31.53144531 423.94866211 -32.38476562 423.76123047 C-79.08530492 413.31800436 -122.01294921 386.70589694 -151.875 349.3125 C-152.53371094 348.52101563 -153.19242188 347.72953125 -153.87109375 346.9140625 C-175.81575572 320.33320434 -189.95290065 287.94600377 -196.875 254.3125 C-197.03726074 253.5793457 -197.19952148 252.84619141 -197.36669922 252.09082031 C-203.17297766 224.99485427 -202.0848354 193.21334488 -195.875 166.3125 C-195.68776367 165.4683252 -195.50052734 164.62415039 -195.30761719 163.75439453 C-187.02011586 127.10474487 -169.0562942 93.15866624 -143.26953125 65.859375 C-141.32379182 63.78984465 -139.48817042 61.6938087 -137.6875 59.5 C-134.44170945 55.67493239 -130.70808754 52.53281504 -126.875 49.3125 C-126.03453125 48.57257813 -125.1940625 47.83265625 -124.328125 47.0703125 C-105.35349196 30.66406901 -83.25143696 18.23536711 -59.875 9.3125 C-59.14877441 9.03422363 -58.42254883 8.75594727 -57.67431641 8.46923828 C-13.70104013 -8.04191486 -13.70104013 -8.04191486 0 0 Z M-117.875 76.3125 C-118.62475098 77.0235791 -118.62475098 77.0235791 -119.38964844 77.74902344 C-151.02482135 107.7793683 -173.67890925 153.39283338 -175.05200195 197.328125 C-175.07810657 198.73948973 -175.09829414 200.15097343 -175.11328125 201.5625 C-175.1230751 202.32977921 -175.13286896 203.09705841 -175.14295959 203.8875885 C-175.32014425 221.3832223 -174.99526826 238.20628279 -170.875 255.3125 C-170.66601074 256.20098633 -170.45702148 257.08947266 -170.24169922 258.00488281 C-158.33837613 307.13395415 -126.65989907 349.43319147 -83.92919922 376.06982422 C-40.17732289 402.53726545 11.46568258 410.51744321 61.24609375 398.84765625 C93.82148758 390.63214517 122.78482518 374.40068399 147.125 351.3125 C147.61436035 350.85568848 148.1037207 350.39887695 148.60791016 349.92822266 C161.59438902 337.74252948 172.35076438 323.80819976 181.125 308.3125 C181.47481934 307.71099121 181.82463867 307.10948242 182.18505859 306.48974609 C187.35013723 297.55955505 191.46645804 288.39604923 195.125 278.75 C195.70399048 277.23345825 195.70399048 277.23345825 196.29467773 275.6862793 C198.31903553 270.17682373 199.67922741 265.17023047 200.125 259.3125 C199.49746826 259.55895264 198.86993652 259.80540527 198.22338867 260.05932617 C176.97265965 268.35328499 176.97265965 268.35328499 165.9375 271.25 C165.23455811 271.43651123 164.53161621 271.62302246 163.80737305 271.81518555 C151.6952098 274.84076253 139.68307436 275.72088191 127.25 275.6875 C126.10130936 275.68668427 126.10130936 275.68668427 124.92941284 275.68585205 C111.66889918 275.64275758 99.03118235 274.53410826 86.125 271.3125 C85.27486328 271.10351074 84.42472656 270.89452148 83.54882812 270.67919922 C53.69796517 263.09144178 27.40584906 247.39389063 5.125 226.3125 C3.89330078 225.16007812 3.89330078 225.16007812 2.63671875 223.984375 C-26.04962745 196.32413449 -46.31397915 153.58737534 -47.09028625 113.45362854 C-47.0978746 112.77412643 -47.10546295 112.09462433 -47.11328125 111.39453125 C-47.12316574 110.66366806 -47.13305023 109.93280487 -47.14323425 109.17979431 C-47.45727276 79.92965541 -42.01852078 55.47112728 -30.875 28.3125 C-61.50420943 28.3125 -96.97037789 56.09140777 -117.875 76.3125 Z " fill="#000000" transform="translate(239.875,43.6875)"/>
</svg>
