<svg xmlns="http://www.w3.org/2000/svg" viewBox="0 0 749 657"><path fill="#ced9dd" stroke="#ced9dd" d="M317 1.056C188.875 8.84 119.339 49.424 86.462 135.605c-3.164 8.294-10.412 29.707-11.473 33.895-.418 1.65-2.16 7.77-3.871 13.6-4.864 16.572-12.498 46.48-25.117 98.4-2.139 8.8-6.19 25.45-9.003 37C13.184 416.287 13.426 415.193 8.413 448-2.111 516.878-2.48 534.148 6.036 559.197 23.645 610.989 67.619 641.956 141 654.24l13.5 2.26h451.954l1.251-6c6.134-29.41 11.31-53.868 15.342-72.5 1.741-8.048 4.618-21.65 9.093-43a1785.337 1785.337 0 0 1 3.886-18c1.918-8.609 4.596-21.123 8.025-37.5l3.978-19c1.151-5.5 2.966-13.696 4.032-18.214 1.066-4.517 1.939-9.355 1.939-10.75V429H339.783l.71-2.75c.813-3.154 4.935-22.399 7.014-32.75.773-3.85 3.479-16.225 6.014-27.5 2.534-11.275 5.237-23.425 6.006-27 .77-3.575 3.014-12.8 4.988-20.5a16389.068 16389.068 0 0 1 15.065-58.25c1.331-5.087 3.562-13.637 4.957-19 1.396-5.362 2.776-10.537 3.068-11.5.613-2.025 6.395-2.506 6.395-.532 0 .669-.921 5.057-2.046 9.75-5.8 24.191-11.954 50.705-11.954 51.503 0 .294 68.063.421 151.25.282l151.25-.253 1.746-7c1.613-6.467 3.828-15.97 7.225-31 1.134-5.017 12.588-53.742 19.511-83 1.041-4.4 2.832-12.05 3.979-17 1.148-4.95 2.732-11.7 3.52-15 2.371-9.921 4.998-21.139 14.519-62 12.865-55.213 12.91-55.405 14.534-61.566.806-3.061 1.466-7.448 1.466-9.75V0L539.25.149C423.887.23 323.875.639 317 1.056m14 35.072c-109.038 4.386-171.339 32.691-201.179 91.402-15.633 30.757-21.99 52.605-55.853 191.97-2.139 8.8-6.585 27.025-9.882 40.5-10.863 44.409-13.021 53.684-14.571 62.64-.844 4.873-2.195 12.46-3.002 16.86-9.775 53.268-12.39 90.959-7.325 105.597 16.654 48.133 60.189 72.299 138.523 76.893 10.501.616 91.829 1.01 208.591 1.01h191.38l1.198-5.75c2.584-12.402 10.566-50.021 12.572-59.25.777-3.575 2.361-11 3.52-16.5 1.16-5.5 2.95-13.825 3.978-18.5a2110.673 2110.673 0 0 0 3.03-14 8792.54 8792.54 0 0 1 3.614-17c2.632-12.33 5.406-26.183 5.406-27 0-.275-70.2-.341-156-.146-123.224.28-156 .095-156-.88 0-.678.894-4.663 1.986-8.854 1.092-4.191 3.813-15.27 6.047-24.62 2.234-9.35 5.372-22.4 6.974-29 1.602-6.6 4.529-18.75 6.505-27 3.764-15.72 6.67-27.781 13.488-56 2.259-9.35 5.451-22.625 7.093-29.5 1.642-6.875 4.299-17.9 5.905-24.5 1.607-6.6 4.531-18.75 6.498-27 1.967-8.25 5.196-21.637 7.175-29.75l3.598-14.75H439v2.583c0 1.421-.85 6.034-1.889 10.25-1.039 4.217-3.121 13.067-4.626 19.667-1.506 6.6-3.581 15.347-4.612 19.438-1.03 4.091-1.873 8.029-1.873 8.75 0 1.075 20.675 1.312 114.381 1.312h114.382l1.059-4.25c.582-2.337 4.481-18.875 8.663-36.75 4.183-17.875 8.517-36.325 9.631-41a6698.704 6698.704 0 0 0 7.88-33.5c2.627-11.29 5.759-24.651 7.972-34C703.289 49.209 706 37.477 706 36.121c0-1.339-341.685-1.333-375 .007m20.5 21.559c-125.217 3.358-178.435 26.753-207.235 91.1-11.875 26.532-21.066 61.011-66.875 250.872-9.142 37.89-18.605 99.616-18.756 122.341-.256 38.501 30.76 64.781 87.866 74.449 22.001 3.725 26.875 3.818 221.596 4.236l191.596.412 2.119-10.299c2.072-10.065 12.564-59.414 17.711-83.298 1.422-6.6 2.954-13.912 3.403-16.25l.817-4.25H428.371c-92.74 0-155.371-.367-155.371-.911 0-.856 5.011-22.059 29.211-123.589 5.505-23.1 10.797-45.375 11.758-49.5 2.409-10.335 26.217-110.294 30.367-127.5l3.378-14 60.213-.258c57.056-.244 60.184-.166 59.662 1.5-.933 2.982-13.589 58.157-13.589 59.245 0 .692 29.63.941 91.656.768l91.656-.255 20.344-86.5C668.845 98.425 678 58.938 678 58.25c0-1.118-287.319-1.614-326.5-.563" fill-rule="evenodd"/><path fill="#e4ac0c" stroke="#e4ac0c" d="M324 1.111C199.96 7.212 130.291 42.725 94.645 118.02 80.05 148.849 68.684 188.298 39.617 309c-1.39 5.775-5.453 22.481-9.027 37.124-13.505 55.33-15.646 65.02-19.64 88.876-9.592 57.303-12.596 90.723-9.526 106 12.561 62.52 59.038 99.805 141.076 113.174l14 2.281 224.75.292c123.613.16 224.75.149 224.75-.026 0-.174 1.147-5.695 2.549-12.269 1.402-6.573 5.66-26.577 9.462-44.452 3.803-17.875 10.324-48.475 14.491-68C647.239 462.955 654 430.827 654 429.839c0-.666-52.503-.766-157-.298-126.232.565-157 .455-157-.562 0-1.77 11.983-58.404 17.435-82.396 2.488-10.955 8.387-34.805 13.107-53 18.962-73.098 16.628-65.898 21.199-65.406l2.995.323-7.201 30.5c-3.961 16.775-7.025 30.837-6.809 31.25.215.413 68.073.75 150.794.75h150.403l.995-3.75c.548-2.062 5.316-22.2 10.597-44.75s18.151-77.45 28.601-122a391126.6 391126.6 0 0 0 22.941-97.851C747.226 13.381 749 4.494 749 2.899V0L544.75.15C432.412.232 333.075.665 324 1.111m-.5 34.994c-104.884 5.651-162.807 32.592-193.33 89.918-14.398 27.043-23.467 57.37-50.68 169.477A32969.11 32969.11 0 0 1 68.889 339c-16.053 65.668-19.119 79.276-22.872 101.522-10.229 60.626-12.231 87.536-7.646 102.775 14.177 47.113 57.549 72.846 132.579 78.661 8.697.674 82.958 1.042 210.141 1.042h196.692l.554-2.25c.68-2.766 17.192-80.059 26.116-122.25 3.606-17.05 6.757-31.861 7.001-32.914.437-1.881-2.216-1.902-155.429-1.224-85.731.38-156.06.341-156.288-.086-.366-.688 2.672-13.623 20.728-88.276a42388.51 42388.51 0 0 0 12.043-50c4.162-17.325 9.576-39.825 12.031-50 2.454-10.175 7.876-32.675 12.048-50 4.172-17.325 7.802-31.718 8.067-31.984 1.168-1.175 74.346-.552 74.346.633 0 1.163-12.539 56.104-13.603 59.601-.504 1.66 5.408 1.75 114.468 1.75 108.66 0 115.029-.096 115.518-1.75.285-.963 8.195-34.6 17.578-74.75 9.382-40.15 17.505-74.8 18.051-77 .545-2.2 3.719-15.7 7.052-30 3.334-14.3 6.668-28.587 7.41-31.75l1.349-5.75-184.162.148c-101.288.082-190.911.512-199.161.957m19 22.53c-2.2.165-13.45.8-25 1.411-90.577 4.796-140.888 28.359-167.515 78.454-12.116 22.796-20.772 51.9-45.358 152.5-3.024 12.375-7.977 32.625-11.006 45-4.888 19.97-8.881 36.445-17.091 70.5-6.127 25.418-11.479 58.452-15.999 98.74l-2.326 20.74 2.262 8.889c7.782 30.587 33.462 50.311 76.965 59.117 27.207 5.508 19.462 5.314 228.29 5.712l193.223.369.463-2.283c.255-1.256 1.363-6.334 2.462-11.284 1.099-4.95 2.945-13.5 4.102-19a8043.147 8043.147 0 0 1 9.91-46.5c2.195-10.175 4.522-21.188 5.172-24.474.649-3.286 1.401-6.549 1.67-7.25.396-1.031-29.396-1.276-155.242-1.276H271.75l.605-2.75c.678-3.079 2.706-11.782 5.534-23.75 1.04-4.4 2.794-11.825 3.897-16.5a34338.57 34338.57 0 0 1 11.204-47c5.058-21.175 9.778-40.975 10.487-44 3.09-13.173 5.608-23.738 10.01-42 2.585-10.725 5.543-23.231 6.572-27.791 1.029-4.56 3.208-13.785 4.842-20.5a7821.19 7821.19 0 0 0 7.021-29.209c2.227-9.35 5.825-24.425 7.995-33.5s4.688-19.762 5.594-23.75l1.649-7.25H468v2.31c0 1.27-.884 5.882-1.965 10.25C462.551 196.636 455 229.692 455 230.864c0 .84 23.714 1.136 91 1.136 50.05 0 91-.3 91-.667 0-.631 7.861-34.613 11.99-51.833a8150.883 8150.883 0 0 0 12.971-55c1.148-4.95 2.74-11.7 3.54-15C669.463 93.134 677 60.121 677 59.128c0-1.012-321.236-1.485-334.5-.493" fill-rule="evenodd"/><path fill="#043c6c" stroke="#043c6c" d="M336.5 1.098C231.407 5.75 173.991 24.242 130.403 67.476 93.99 103.594 82.378 134.423 41.501 303.5c-1.994 8.25-5.6 23.1-8.014 33-14.095 57.821-16.537 68.248-18.852 80.5-5.452 28.842-10.247 62.008-13.27 91.776-2.037 20.054-1.083 29.7 4.733 47.887 16.304 50.988 59.163 83.112 127.171 95.321 27.877 5.005 28.028 5.008 257.872 5.012l214.64.004.452-3.25c.249-1.788 3.486-17.425 7.195-34.75a35796.32 35796.32 0 0 0 17.478-82c3.327-15.675 9.808-46.163 14.402-67.75l8.353-39.25H338.962l.522-2.25c.287-1.238 2.783-13.05 5.546-26.25 10.791-51.551 16.763-76.619 34.066-143 8.686-33.322 7.97-31.5 12.383-31.5 1.936 0 3.521.359 3.521.797 0 1.283-3.541 17.113-8.958 40.046-2.773 11.738-5.042 21.526-5.042 21.75 0 .224 67.676.407 150.392.407h150.391l.558-2.25c.306-1.238 7.557-32.175 16.113-68.75 8.555-36.575 16.217-69.2 17.025-72.5 5.111-20.853 32.55-138.766 33.103-142.25l.674-4.25-197.378.151C443.32.234 346.4.66 336.5 1.098M334 35.071c-123.087 5.698-181.598 35.231-211.887 106.95-11.621 27.516-19.288 55.269-49.031 177.479-3.346 13.75-9.646 39.625-13.999 57.5-11.61 47.674-16.292 73.672-22.061 122.5-3.374 28.554-2.201 39.788 5.976 57.237 14.611 31.179 44.618 51.357 90.085 60.578 31.549 6.399 23.097 6.185 244.339 6.185h200.923l1.794-8.5c.987-4.675 2.913-13.675 4.28-20 1.367-6.325 5.41-25.225 8.986-42 3.576-16.775 9.223-43.24 12.548-58.812 3.326-15.571 6.047-28.734 6.047-29.25 0-.58-59.499-.938-156-.938-85.8 0-156-.149-156-.332 0-.334 7.192-30.355 18.128-75.668 5.642-23.378 10.016-41.564 24.295-101 3.502-14.575 8.431-35.05 10.954-45.5 2.523-10.45 6.105-25.3 7.962-33l3.375-14 37.214-.262c35.146-.248 37.185-.165 36.677 1.5-.296.969-2.134 8.737-4.086 17.262-1.951 8.525-3.982 17.3-4.514 19.5-2.282 9.444-5.005 21.729-5.005 22.579 0 .556 45.681.921 115.279.921h115.279l11.829-50.75c6.506-27.913 12.451-53.225 13.211-56.25 3.42-13.607 26.406-112.632 26.404-113.75C707 33.828 364.411 33.663 334 35.071" fill-rule="evenodd"/></svg>